<?xml version="1.0" encoding="UTF-8"?>
<svg width="1982px" height="1024px" viewBox="0 0 1982 1024" version="1.1" xmlns="http://www.w3.org/2000/svg" xmlns:xlink="http://www.w3.org/1999/xlink">
    <!-- Generator: Sketch 53 (72520) - https://sketchapp.com -->
    <title>LogoBytex large</title>
    <desc>Created with Sketch.</desc>
    <defs>
        <linearGradient x1="10.5740764%" y1="105.393311%" x2="50%" y2="10.3494915%" id="linearGradient-1">
            <stop stop-color="#4F0012" offset="0%"></stop>
            <stop stop-color="#FF003B" offset="100%"></stop>
        </linearGradient>
    </defs>
    <g id="LogoBytex-large" stroke="none" stroke-width="1" fill="none" fill-rule="evenodd">
        <g id="LOGO" transform="translate(204.400000, 204.800000)">
            <g id="logotype" transform="translate(600.400000, 128.000000)" fill="#2B2B2B">
                <g id="bytex">
                    <path d="M51.1999715,90.4993133 C66.2616543,81.7865937 83.7484865,76.8 102.4,76.8 C158.953958,76.8 204.8,122.646042 204.8,179.2 C204.8,235.753958 158.953958,281.6 102.4,281.6 C45.8460416,281.6 0,235.753958 0,179.2 L0,0 L51.2,0 L51.2,90.4992968 L51.1999715,90.4993133 Z M102.4,230.4 C130.676979,230.4 153.6,207.476979 153.6,179.2 C153.6,150.923021 130.676979,128 102.4,128 C74.1230208,128 51.2,150.923021 51.2,179.2 C51.2,207.476979 74.1230208,230.4 102.4,230.4 Z" id="Shape" fill-rule="nonzero"></path>
                    <path d="M409.6,76.8015198 L409.6,268.8 C409.6,318.284714 369.484714,358.4 320,358.4 L281.59892,358.4 L281.59892,307.2 L320,307.2 C339.757679,307.2 356.030223,292.278365 358.163091,273.089638 C346.584959,278.548161 333.648877,281.6 320,281.6 C270.515286,281.6 230.4,241.484714 230.4,192 L230.4,76.8015198 L281.6,76.8015198 L281.6,192 C281.6,213.207734 298.792266,230.4 320,230.4 C341.207734,230.4 358.4,213.207734 358.4,192 L358.4,76.8015198 L409.6,76.8015198 Z" id="Path" fill-rule="nonzero"></path>
                    <path d="M614.387521,76.8 C596.818538,89.999914 582.756881,107.615969 573.85072,127.999996 L512,128 L512,179.202582 C512,198.529255 516.233675,211.229368 523.702148,218.69767 C531.170849,226.1662 543.871915,230.4 563.2,230.4 L573.850718,230.4 C582.756881,250.784031 596.818538,268.400086 614.387521,281.6 L563.2,281.6 C531.32973,281.6 505.630535,273.033377 487.498694,254.90195 C469.366833,236.770503 460.8,211.071853 460.8,179.202582 L460.8,128 L435.2,128 L435.2,76.8 L460.8,76.8 L460.8,-1.47792889e-12 L512,-1.47792889e-12 L512,76.8 L614.387521,76.8 L614.387521,76.8 Z" id="Path" fill-rule="nonzero"></path>
                    <path d="M792.354013,195.2 L635.851307,195.2 C642.784711,219.227403 664.940206,236.8 691.2,236.8 C706.390575,236.8 720.536944,230.880331 731.052887,220.8 L784.791619,220.8 C783.333274,224.076714 781.700621,227.279388 779.898757,230.395924 C761.733101,261.815569 728.178327,281.6 691.2,281.6 C634.646042,281.6 588.8,235.753958 588.8,179.2 C588.8,122.646042 634.646042,76.8 691.2,76.8 C744.609734,76.8 788.929702,117.838752 793.256605,170.767983 C793.485172,173.563938 793.6,176.376306 793.6,179.2 C793.6,184.60286 793.179264,189.949025 792.354013,195.2 Z M741.103615,150.4 C731.115177,133.13761 712.431001,121.6 691.2,121.6 C669.879875,121.6 651.265177,133.183313 641.305864,150.4 L741.103615,150.4 L741.103615,150.4 Z" id="Shape" fill-rule="nonzero"></path>
                    <polygon id="Path" points="870.4 224.07191 830.4 281.6 768 281.6 839.2 179.2 768 76.8 830.4 76.8 870.4 134.32809 910.4 76.8 972.8 76.8 901.6 179.2 972.8 281.6 910.4 281.6"></polygon>
                </g>
            </g>
            <g id="Symbol">
                <g id="Group">
                    <g id="1" transform="translate(0.000000, 106.400000)">
                        <path d="M160.131843,2.421045 C168.659963,-2.4501448 179.52389,0.511514869 184.397101,9.03609702 C185.932668,11.7222239 186.74037,14.7624167 186.74037,17.8561664 L186.74037,204.995853 L4.77422535,96.7276113 C7.87048042,91.3731115 12.3623872,86.8256993 17.9221336,83.6500195 L160.131843,2.421045 L160.131843,2.421045 Z" id="Path" fill="url(#linearGradient-1)"></path>
                        <path d="M7.89803652e-15,114.520262 C7.11487521e-15,108.127918 1.71675044,101.981115 4.82373464,96.6422657 L231.065027,225.869365 C242.147623,232.199649 248.98716,243.980511 248.98716,256.739607 L248.98716,489.911339 C248.98716,499.729536 241.024635,507.688757 231.202363,507.688757 C228.107329,507.688757 225.065875,506.88139 222.378633,505.346461 L17.9221336,388.56265 C6.83953731,382.232365 -9.77387072e-15,370.451504 0,357.692407 L7.89803652e-15,114.520262 Z" id="Path" fill="#FF003B"></path>
                    </g>
                    <g id="2" transform="translate(373.400000, 254.000000) scale(-1, -1) translate(-373.400000, -254.000000) translate(248.800000, 0.000000)">
                        <path d="M160.131843,2.421045 C168.659963,-2.4501448 179.52389,0.511514869 184.397101,9.03609702 C185.932668,11.7222239 186.74037,14.7624167 186.74037,17.8561664 L186.74037,204.995853 L4.77422535,96.7276113 C7.87048042,91.3731115 12.3623872,86.8256993 17.9221336,83.6500195 L160.131843,2.421045 L160.131843,2.421045 Z" id="Path" fill="url(#linearGradient-1)"></path>
                        <path d="M7.89803652e-15,114.520262 C7.11487521e-15,108.127918 1.71675044,101.981115 4.82373464,96.6422657 L231.065027,225.869365 C242.147623,232.199649 248.98716,243.980511 248.98716,256.739607 L248.98716,489.911339 C248.98716,499.729536 241.024635,507.688757 231.202363,507.688757 C228.107329,507.688757 225.065875,506.88139 222.378633,505.346461 L17.9221336,388.56265 C6.83953731,382.232365 -9.77387072e-15,370.451504 0,357.692407 L7.89803652e-15,114.520262 Z" id="Path" fill="#FF003B"></path>
                    </g>
                </g>
            </g>
        </g>
    </g>
</svg>