<svg id="Layer_1" data-name="Layer 1" xmlns="http://www.w3.org/2000/svg" xmlns:xlink="http://www.w3.org/1999/xlink" viewBox="0 0 1573.2 613.78"><defs><style>.cls-1,.cls-2{fill:#fff;}.cls-2,.cls-3,.cls-4,.cls-5{fill-rule:evenodd;}.cls-3{fill:url(#linear-gradient);}.cls-4{fill:#ff003b;}.cls-5{fill:url(#linear-gradient-2);}</style><linearGradient id="linear-gradient" x1="567.2" y1="809.17" x2="567.59" y2="810.12" gradientTransform="matrix(181.97, 0, 0, -204.92, -102941.53, 166362.15)" gradientUnits="userSpaceOnUse"><stop offset="0" stop-color="#4f0012"/><stop offset="1" stop-color="#ff003b"/></linearGradient><linearGradient id="linear-gradient-2" x1="573.46" y1="807.08" x2="573.86" y2="808.03" gradientTransform="matrix(-181.97, 0, 0, 204.92, 104988.33, -164910.15)" xlink:href="#linear-gradient"/></defs><title>BytexSVG (1)</title><g id="LogoBytex-large"><g id="LOGO"><g id="logotype"><g id="bytex"><path id="Shape" class="cls-1" d="M856,423.3A102.41,102.41,0,1,1,804.8,512V332.8H856v90.5Zm51.2,139.9A51.2,51.2,0,1,0,856,512,51.2,51.2,0,0,0,907.2,563.2Z" transform="translate(-204.4 -205.11)"/><path id="Path" class="cls-1" d="M1214.4,409.6v192a89.61,89.61,0,0,1-89.6,89.6h-38.4V640h38.4A38.4,38.4,0,0,0,1163,605.89,89.64,89.64,0,0,1,1035.2,524.8V409.6h51.2V524.8a38.4,38.4,0,0,0,76.8,0V409.6Z" transform="translate(-204.4 -205.11)"/><path class="cls-1" d="M1419.19,409.6a128.52,128.52,0,0,0-40.54,51.2H1316.8V512c0,19.33,4.23,32,11.7,39.5s20.17,11.7,39.5,11.7h10.65a128.52,128.52,0,0,0,40.54,51.2H1368c-31.87,0-57.57-8.57-75.7-26.7s-26.7-43.83-26.7-75.7V460.8H1240V409.6h25.6V332.8h51.2v76.8Z" transform="translate(-204.4 -205.11)"/><path class="cls-1" d="M1597.15,528h-156.5a57.62,57.62,0,0,0,95.2,25.6h53.74a102.42,102.42,0,1,1,8.47-50c.23,2.79.34,5.61.34,8.43A102.47,102.47,0,0,1,1597.15,528Zm-51.25-44.8a57.62,57.62,0,0,0-99.79,0Z" transform="translate(-204.4 -205.11)"/><polygon class="cls-2" points="1470.8 351.76 1430.8 409.29 1368.4 409.29 1439.6 306.89 1368.4 204.49 1430.8 204.49 1470.8 262.02 1510.8 204.49 1573.2 204.49 1502 306.89 1573.2 409.29 1510.8 409.29 1470.8 351.76"/></g></g><g id="Symbol"><g id="Group"><path class="cls-3" d="M364.53,313.62a17.78,17.78,0,0,1,26.61,15.44V516.2l-182-108.27a35.57,35.57,0,0,1,13.15-13.08l142.21-81.23Z" transform="translate(-204.4 -205.11)"/><path class="cls-4" d="M204.4,425.72a35.6,35.6,0,0,1,4.82-17.88L435.47,537.07a35.55,35.55,0,0,1,17.92,30.87V801.11a17.79,17.79,0,0,1-26.61,15.44L222.32,699.76a35.55,35.55,0,0,1-17.92-30.87Z" transform="translate(-204.4 -205.11)"/><path class="cls-5" d="M542.27,710.38a17.78,17.78,0,0,1-26.61-15.44V507.8l182,108.27a35.57,35.57,0,0,1-13.15,13.08L542.27,710.38Z" transform="translate(-204.4 -205.11)"/><path class="cls-4" d="M702.4,598.28a35.6,35.6,0,0,1-4.82,17.88L471.33,486.93a35.55,35.55,0,0,1-17.92-30.87V222.89A17.79,17.79,0,0,1,480,207.45L684.48,324.24a35.55,35.55,0,0,1,17.92,30.87Z" transform="translate(-204.4 -205.11)"/></g></g></g></g></svg>